<svg xmlns="http://www.w3.org/2000/svg" width="18.6" height="11.896" viewBox="0 0 18.6 11.896">
  <g id="Grupo_268" data-name="Grupo 268" transform="translate(0)">
    <rect id="Ret창ngulo_27" data-name="Ret창ngulo 27" width="1.231" height="5.207" transform="translate(15.286 2.59)" fill="#333"/>
    <rect id="Ret창ngulo_28" data-name="Ret창ngulo 28" width="5.207" height="1.231" transform="translate(13.393 4.578)" fill="#333"/>
    <path id="Caminho_6" data-name="Caminho 6" d="M2721.464,789.888c-1.121,0-2.207,0-3.292,0-.631,0-.631,0-.632-.607,0-1.258,0-1.261,1.251-1.264,1.341,0,2.682.013,4.023-.009.378-.006.526.126.571.489a5.953,5.953,0,1,1-6.962-5.063,5.811,5.811,0,0,1,4.794,1.221,1.065,1.065,0,0,1,.134.132.393.393,0,0,1,.042.093l-1.306,1.315a4.078,4.078,0,0,0-2.988-.938,4.053,4.053,0,0,0-3.163,5.962,4.067,4.067,0,0,0,4.456,2A3.967,3.967,0,0,0,2721.464,789.888Z" transform="translate(-2711.534 -783.334)" fill="#333"/>
  </g>
</svg>
