<svg id="Instagram" xmlns="http://www.w3.org/2000/svg" width="24.93" height="24.93" viewBox="0 0 24.93 24.93">
  <path id="Caminho_3" data-name="Caminho 3" d="M12.465,2.216a38.221,38.221,0,0,1,4.986.139,6.424,6.424,0,0,1,2.355.416A4.864,4.864,0,0,1,22.16,5.125a6.424,6.424,0,0,1,.416,2.355c0,1.247.139,1.662.139,4.986a38.22,38.22,0,0,1-.139,4.986,6.424,6.424,0,0,1-.416,2.355,4.864,4.864,0,0,1-2.355,2.355,6.424,6.424,0,0,1-2.355.416c-1.247,0-1.662.139-4.986.139a38.22,38.22,0,0,1-4.986-.139,6.424,6.424,0,0,1-2.355-.416A4.864,4.864,0,0,1,2.77,19.806a6.424,6.424,0,0,1-.416-2.355c0-1.247-.139-1.662-.139-4.986a38.221,38.221,0,0,1,.139-4.986A6.424,6.424,0,0,1,2.77,5.125,4.974,4.974,0,0,1,3.74,3.74a2.342,2.342,0,0,1,1.385-.97,6.424,6.424,0,0,1,2.355-.416,38.221,38.221,0,0,1,4.986-.139m0-2.216A40.923,40.923,0,0,0,7.341.139,8.551,8.551,0,0,0,4.294.693,5.422,5.422,0,0,0,2.078,2.078,5.422,5.422,0,0,0,.693,4.294,6.311,6.311,0,0,0,.139,7.341,40.923,40.923,0,0,0,0,12.465,40.923,40.923,0,0,0,.139,17.59a8.551,8.551,0,0,0,.554,3.047,5.422,5.422,0,0,0,1.385,2.216,5.422,5.422,0,0,0,2.216,1.385,8.551,8.551,0,0,0,3.047.554,40.924,40.924,0,0,0,5.125.139,40.924,40.924,0,0,0,5.125-.139,8.551,8.551,0,0,0,3.047-.554,5.811,5.811,0,0,0,3.6-3.6,8.551,8.551,0,0,0,.554-3.047c0-1.385.139-1.8.139-5.125a40.924,40.924,0,0,0-.139-5.125,8.551,8.551,0,0,0-.554-3.047,5.422,5.422,0,0,0-1.385-2.216A5.422,5.422,0,0,0,20.637.693,8.551,8.551,0,0,0,17.59.139,40.923,40.923,0,0,0,12.465,0m0,6.094a6.268,6.268,0,0,0-6.371,6.371,6.371,6.371,0,1,0,6.371-6.371m0,10.526A4.081,4.081,0,0,1,8.31,12.465,4.081,4.081,0,0,1,12.465,8.31a4.081,4.081,0,0,1,4.155,4.155,4.081,4.081,0,0,1-4.155,4.155M19.113,4.294a1.524,1.524,0,1,0,1.524,1.524,1.537,1.537,0,0,0-1.524-1.524" transform="translate(0 0)" fill="#0887d4" fill-rule="evenodd"/>
</svg>
