<svg xmlns="http://www.w3.org/2000/svg" width="13.246" height="13.213" viewBox="0 0 13.246 13.213">
  <g id="Grupo_267" data-name="Grupo 267" transform="translate(0 0)">
    <path id="Caminho_3" data-name="Caminho 3" d="M2954.679,769.821a.158.158,0,0,0,.12-.095,2.693,2.693,0,0,1,1.663-1.208,3.756,3.756,0,0,1,2.483.185,2.319,2.319,0,0,1,1.251,1.291,5.514,5.514,0,0,1,.386,2c.066,1.755.012,3.511.033,5.266,0,.135-.042.174-.174.173q-1.2-.008-2.391,0c-.134,0-.174-.041-.174-.174,0-1.576.009-3.151,0-4.727a2.524,2.524,0,0,0-.208-1.04,1.059,1.059,0,0,0-.72-.639,2.11,2.11,0,0,0-1.176.029,1.324,1.324,0,0,0-.851.938,3.561,3.561,0,0,0-.144,1.081c0,1.446,0,2.892,0,4.338,0,.191,0,.191-.19.191h-2.336c-.187,0-.187,0-.187-.182q0-4.233,0-8.466c0-.142.043-.18.182-.179q1.133.01,2.266,0c.136,0,.175.045.173.176C2954.674,769.124,2954.679,769.466,2954.679,769.821Z" transform="translate(-2947.371 -764.223)" fill="#333"/>
    <path id="Caminho_4" data-name="Caminho 4" d="M2921.754,774.281q0-2.113,0-4.225c0-.2,0-.2.2-.2.787,0,1.575,0,2.362,0,.131,0,.163.041.163.165q0,4.253,0,8.506c0,.118-.031.162-.156.161q-1.2-.007-2.4,0c-.127,0-.166-.039-.166-.166Q2921.757,776.4,2921.754,774.281Z" transform="translate(-2921.537 -765.473)" fill="#333"/>
    <path id="Caminho_5" data-name="Caminho 5" d="M2920.3,741.758a1.593,1.593,0,0,1,1.564-1.576,1.58,1.58,0,1,1,0,3.161A1.589,1.589,0,0,1,2920.3,741.758Z" transform="translate(-2920.3 -740.183)" fill="#333"/>
  </g>
</svg>
