<svg xmlns="http://www.w3.org/2000/svg" width="16.726" height="26.514" viewBox="0 0 16.726 26.514">
  <g id="noun_Location_2443000" transform="translate(-47.647 235.241)">
    <path id="Caminho_434" data-name="Caminho 434" d="M35.185,8.265a8.429,8.429,0,0,1-1.18,4.193c-.758,1.325-1.59,2.627-2.46,3.875a26.416,26.416,0,0,0-4.177,8.54c-.114.432-.178.88-.289,1.325a1.121,1.121,0,0,1-.217.315,1,1,0,0,1-.225-.307,27.84,27.84,0,0,0-5.049-10.568,28.158,28.158,0,0,1-2.12-3.266A8.369,8.369,0,1,1,35.185,8.265ZM26.846,11.8a3.289,3.289,0,0,0,3.268-3.289,3.218,3.218,0,0,0-6.433-.058A3.31,3.31,0,0,0,26.846,11.8Z" transform="translate(29.188 -235.242)" fill="#333"/>
  </g>
</svg>
