<svg id="baseline-phone-24px" xmlns="http://www.w3.org/2000/svg" width="25.42" height="25.421" viewBox="0 0 25.42 25.421">
  <path id="Caminho_220" data-name="Caminho 220" d="M0,0H25.42V25.42H0Z" transform="translate(0)" fill="none"/>
  <path id="Caminho_221" data-name="Caminho 221" d="M6.834,11.251a16.045,16.045,0,0,0,6.98,6.98l2.33-2.33a1.053,1.053,0,0,1,1.08-.254,12.082,12.082,0,0,0,3.781.6,1.062,1.062,0,0,1,1.059,1.059v3.7a1.062,1.062,0,0,1-1.059,1.059A18,18,0,0,1,3,4.059,1.062,1.062,0,0,1,4.059,3H7.766A1.062,1.062,0,0,1,8.826,4.059a12.033,12.033,0,0,0,.6,3.781,1.063,1.063,0,0,1-.265,1.08Z" transform="translate(-1.411 0.178)" fill="#333"/>
</svg>
