<svg xmlns="http://www.w3.org/2000/svg" width="38.986" height="27.155" viewBox="0 0 38.986 27.155"><path d="M0-52.714c0,4.272,3.724,7.449,8.106,7.339,2.958-.11,1.2,7.339-3.4,9.858a1.162,1.162,0,0,0,.767,2.191c8.763-3.177,13.035-14.021,9.53-22.565C12.049-62.9,0-61.7,0-52.714Zm22.784,0c0,4.272,3.724,7.449,8.106,7.339,2.958-.11,1.2,7.339-3.4,9.858a1.161,1.161,0,0,0,.767,2.191c6.239-2.262,10.145-8.41,10.681-15.27a16.746,16.746,0,0,0-1.151-7.3C34.833-62.9,22.784-61.7,22.784-52.714Z" transform="translate(38.986 -33.257) rotate(180)" fill="#fff"/></svg>