<svg id="Grupo_527" data-name="Grupo 527" xmlns="http://www.w3.org/2000/svg" width="29.876" height="29.876" viewBox="0 0 29.876 29.876">
  <path id="Caminho_208" data-name="Caminho 208" d="M19.918,18.314l-5.4-5.489a7.809,7.809,0,0,0,1.613-4.81A7.992,7.992,0,0,0,8.066,0a8.016,8.016,0,1,0,0,16.032,7.922,7.922,0,0,0,4.84-1.6l5.4,5.489ZM2.3,8.016A5.688,5.688,0,0,1,8.066,2.29a5.726,5.726,0,1,1,0,11.451A5.688,5.688,0,0,1,2.3,8.016Z" transform="translate(4.979 4.979)" fill="#4ea5d9"/>
  <g id="baseline-search-24px" transform="translate(0 0)">
    <path id="Caminho_427" data-name="Caminho 427" d="M0,0H29.876V29.876H0Z" fill="none"/>
  </g>
</svg>
