<svg xmlns="http://www.w3.org/2000/svg" width="26.217" height="21.265" viewBox="0 0 26.217 21.265">
  <path id="Caminho_422" data-name="Caminho 422" d="M46.3,23.265A15.157,15.157,0,0,0,61.6,7.972V7.243a11.84,11.84,0,0,0,2.622-2.767,12.091,12.091,0,0,1-3.059.874,5.667,5.667,0,0,0,2.33-2.913,13.359,13.359,0,0,1-3.35,1.311A5.2,5.2,0,0,0,56.206,2a5.472,5.472,0,0,0-5.389,5.389,2.839,2.839,0,0,0,.146,1.165,15.059,15.059,0,0,1-11.069-5.68,5.578,5.578,0,0,0-.728,2.767,5.787,5.787,0,0,0,2.33,4.515,4.91,4.91,0,0,1-2.476-.728h0a5.323,5.323,0,0,0,4.37,5.243,4.49,4.49,0,0,1-1.457.146,2.479,2.479,0,0,1-1.02-.146,5.518,5.518,0,0,0,5.1,3.787,11,11,0,0,1-6.7,2.33A4.032,4.032,0,0,1,38,20.643a13.748,13.748,0,0,0,8.3,2.622" transform="translate(-38 -2)" fill="#0887d4" fill-rule="evenodd"/>
</svg>
