<svg xmlns="http://www.w3.org/2000/svg" width="21.098" height="21.098" viewBox="0 0 21.098 21.098"><g transform="translate(0 0)"><path d="M21.1,10.277a10.374,10.374,0,0,1-15.364,9L0,21.1l1.87-5.514A10.169,10.169,0,0,1,.383,10.277a10.358,10.358,0,0,1,20.715,0ZM10.741,1.637a8.684,8.684,0,0,0-8.708,8.641,8.55,8.55,0,0,0,1.659,5.066L2.6,18.552,5.95,17.489a8.716,8.716,0,0,0,13.5-7.211A8.685,8.685,0,0,0,10.741,1.637Zm5.23,11.008c-.064-.1-.233-.168-.487-.294s-1.5-.736-1.735-.819-.4-.126-.572.126-.656.819-.8.987-.3.19-.55.064a6.949,6.949,0,0,1-2.041-1.25A7.6,7.6,0,0,1,8.37,9.713c-.148-.252-.015-.388.111-.514s.254-.294.381-.441a1.688,1.688,0,0,0,.254-.42A.459.459,0,0,0,9.095,7.9c-.063-.126-.572-1.366-.783-1.87s-.423-.42-.571-.42-.317-.021-.487-.021a.937.937,0,0,0-.677.315A2.817,2.817,0,0,0,5.689,8a4.874,4.874,0,0,0,1.037,2.605,10.378,10.378,0,0,0,4.337,3.8c2.581,1.008,2.581.672,3.047.63a2.568,2.568,0,0,0,1.714-1.2A2.1,2.1,0,0,0,15.971,12.644Z" transform="translate(0 0)" fill="#19647e"/></g></svg>