<svg id="whatsapp-logo" xmlns="http://www.w3.org/2000/svg" width="24.93" height="24.93" viewBox="0 0 24.93 24.93">
  <path id="WhatsApp" d="M24.93,12.144A12.259,12.259,0,0,1,6.776,22.777L0,24.93l2.209-6.516A12.016,12.016,0,0,1,.453,12.144a12.239,12.239,0,0,1,24.477,0ZM12.692,1.934A10.261,10.261,0,0,0,2.4,12.144a10.1,10.1,0,0,0,1.96,5.986L3.077,21.922l3.954-1.257a10.3,10.3,0,0,0,15.951-8.521A10.262,10.262,0,0,0,12.692,1.934Zm6.18,13.007c-.076-.124-.275-.2-.575-.347s-1.776-.869-2.05-.968-.476-.149-.675.149-.775.968-.95,1.167-.35.224-.65.075a8.211,8.211,0,0,1-2.412-1.477A8.974,8.974,0,0,1,9.89,11.478c-.175-.3-.018-.459.132-.607s.3-.348.45-.521a2,2,0,0,0,.3-.5.542.542,0,0,0-.025-.522c-.075-.149-.675-1.614-.925-2.21s-.5-.5-.675-.5S8.772,6.6,8.572,6.6a1.107,1.107,0,0,0-.8.372,3.329,3.329,0,0,0-1.05,2.483,5.76,5.76,0,0,0,1.225,3.078,12.263,12.263,0,0,0,5.125,4.494c3.05,1.191,3.05.794,3.6.744A3.034,3.034,0,0,0,18.7,16.357,2.482,2.482,0,0,0,18.872,14.941Z" fill="#0887d4"/>
</svg>
